<svg width="28" height="28" viewBox="0 0 28 28" fill="none" xmlns="http://www.w3.org/2000/svg">
<path fill-rule="evenodd" clip-rule="evenodd" d="M19.1262 3.95958C19.5168 3.56906 20.1499 3.56906 20.5404 3.95958L24.0404 7.45958C24.431 7.8501 24.431 8.48327 24.0404 8.87379L20.5404 12.3738C20.1499 12.7643 19.5168 12.7643 19.1262 12.3738C18.7357 11.9833 18.7357 11.3501 19.1262 10.9596L20.919 9.16676H9.16044C6.56031 9.16676 4.5 11.2949 4.5 14C4.5 14.5523 4.05228 15 3.5 15C2.94772 15 2.5 14.5523 2.5 14C2.5 10.2618 5.38556 7.16676 9.16044 7.16676H20.9192L19.1262 5.37379C18.7357 4.98327 18.7357 4.3501 19.1262 3.95958ZM24.5 13C25.0523 13 25.5 13.4477 25.5 14C25.5 17.7886 22.3425 20.8334 18.6175 20.8334H7.08095L8.87377 22.6262C9.2643 23.0168 9.2643 23.6499 8.87377 24.0405C8.48325 24.431 7.85008 24.431 7.45956 24.0405L3.95956 20.5405C3.56904 20.1499 3.56904 19.5168 3.95956 19.1262L7.45956 15.6262C7.85008 15.2357 8.48325 15.2357 8.87377 15.6262C9.2643 16.0168 9.2643 16.6499 8.87377 17.0405L7.08081 18.8334H18.6175C21.2674 18.8334 23.5 16.6548 23.5 14C23.5 13.4477 23.9477 13 24.5 13Z" fill="white"/>
</svg>
