<svg width="24" height="26" viewBox="0 0 24 26" fill="none" xmlns="http://www.w3.org/2000/svg">
<path fill-rule="evenodd" clip-rule="evenodd" d="M6.42129 5H1.5C0.947715 5 0.5 5.44771 0.5 6C0.5 6.55228 0.947715 7 1.5 7H2.89388L3.88474 22.8538C3.98356 24.4349 5.29471 25.6667 6.8789 25.6667H17.1211C18.7053 25.6667 20.0164 24.4349 20.1153 22.8538L21.1061 7H22.5C23.0523 7 23.5 6.55228 23.5 6C23.5 5.44771 23.0523 5 22.5 5H20.174C20.1685 4.99995 20.1629 4.99995 20.1574 5H17.5787C17.1064 2.34732 14.7884 0.333328 12 0.333328C9.2116 0.333328 6.8936 2.34732 6.42129 5ZM8.47135 5H15.5286C15.0934 3.46099 13.6784 2.33333 12 2.33333C10.3216 2.33333 8.90664 3.46099 8.47135 5ZM19.1022 7H4.89778L5.88085 22.729C5.91379 23.2561 6.35084 23.6667 6.8789 23.6667H17.1211C17.6492 23.6667 18.0862 23.2561 18.1192 22.729L19.1022 7ZM14.6472 10.8443C15.1982 10.8828 15.6136 11.3607 15.5751 11.9116L15.0868 18.8946C15.0482 19.4455 14.5704 19.8609 14.0194 19.8224C13.4685 19.7838 13.0531 19.306 13.0916 18.755L13.5799 11.7721C13.6184 11.2212 14.0963 10.8058 14.6472 10.8443ZM9.35279 10.8443C9.90373 10.8058 10.3816 11.2212 10.4201 11.7721L10.9084 18.7551C10.9469 19.306 10.5315 19.7839 9.9806 19.8224C9.42966 19.8609 8.95181 19.4455 8.91328 18.8946L8.42499 11.9116C8.38646 11.3607 8.80185 10.8829 9.35279 10.8443Z" fill="white"/>
</svg>
