<svg width="28" height="28" viewBox="0 0 28 28" fill="none" xmlns="http://www.w3.org/2000/svg">
<path fill-rule="evenodd" clip-rule="evenodd" d="M23.6388 3.8754C23.2598 3.49636 22.9329 3.16938 22.6413 2.92256C22.3336 2.66199 21.999 2.43164 21.5872 2.30141C20.9985 2.11523 20.3666 2.11523 19.7779 2.30141C19.3662 2.43164 19.0316 2.66199 18.7238 2.92256C18.4323 3.16938 18.1053 3.49636 17.7263 3.8754L10.3425 11.2592C9.92749 11.6738 9.6138 11.9872 9.37671 12.36C9.17609 12.6754 9.02067 13.0174 8.915 13.376C8.79012 13.7997 8.76032 14.2421 8.72089 14.8274L8.53775 17.5291C8.5284 17.6663 8.51751 17.8261 8.52021 17.9661C8.52329 18.1253 8.54317 18.3618 8.66354 18.6093C8.81042 18.9113 9.05438 19.1552 9.35637 19.3021C9.60384 19.4225 9.84034 19.4424 9.99953 19.4454C10.1396 19.4481 10.2994 19.4372 10.4365 19.4279L13.1382 19.2448C13.7235 19.2053 14.1659 19.1755 14.5897 19.0507C14.9483 18.945 15.2903 18.7896 15.6057 18.5889C15.9784 18.3519 16.2918 18.0382 16.7065 17.6232L24.0903 10.2394C24.4693 9.86035 24.7963 9.53339 25.0431 9.24187C25.3037 8.93409 25.534 8.5995 25.6642 8.18771C25.8504 7.599 25.8504 6.96719 25.6642 6.37848C25.534 5.96669 25.3037 5.6321 25.0431 5.32432C24.7963 5.0328 24.4693 4.70584 24.0902 4.32682L23.6388 3.8754ZM20.9841 4.20832C21.038 4.22538 21.1377 4.27003 21.349 4.44897C21.5695 4.63566 21.8378 4.90278 22.2523 5.31734L22.6483 5.71332C23.0629 6.12788 23.33 6.39613 23.5167 6.61664C23.6956 6.82799 23.7403 6.92761 23.7573 6.98156C23.8194 7.17779 23.8194 7.3884 23.7573 7.58463C23.7403 7.63858 23.6956 7.7382 23.5167 7.94955C23.3321 8.16754 23.069 8.43219 22.6625 8.83873L19.1269 5.3032C19.5335 4.89669 19.7981 4.63353 20.0161 4.44897C20.2275 4.27003 20.3271 4.22538 20.381 4.20832C20.5773 4.14626 20.7879 4.14626 20.9841 4.20832ZM17.7127 6.71741L21.2482 10.2529L15.3585 16.1426C14.8487 16.6525 14.6963 16.7971 14.5323 16.9014C14.3746 17.0017 14.2036 17.0794 14.0243 17.1322C13.8379 17.1872 13.6288 17.2069 12.9094 17.2557L10.55 17.4156L10.71 15.0563C10.7588 14.3369 10.7785 14.1277 10.8334 13.9413C10.8863 13.762 10.964 13.591 11.0643 13.4333C11.1686 13.2694 11.3131 13.117 11.823 12.6071L17.7127 6.71741Z" fill="white"/>
<path d="M11.5055 2.5C10.1195 2.49999 9.01721 2.49999 8.12839 2.5738C7.21811 2.64939 6.44253 2.80755 5.73415 3.17552C4.6383 3.74478 3.74477 4.6383 3.17552 5.73416C2.80755 6.44253 2.64939 7.21811 2.5738 8.1284C2.49999 9.01721 2.49999 10.1195 2.5 11.5055V16.4945C2.49999 17.8805 2.49999 18.9828 2.5738 19.8716C2.64939 20.7819 2.80755 21.5575 3.17552 22.2659C3.74477 23.3617 4.6383 24.2552 5.73415 24.8245C6.44253 25.1925 7.21811 25.3506 8.12839 25.4262C9.0172 25.5 10.1195 25.5 11.5054 25.5H16.4945C17.8805 25.5 18.9828 25.5 19.8716 25.4262C20.7819 25.3506 21.5575 25.1925 22.2658 24.8245C23.3617 24.2552 24.2552 23.3617 24.8245 22.2659C25.1925 21.5575 25.3506 20.7819 25.4262 19.8716C25.5 18.9828 25.5 17.8805 25.5 16.4946V15.1667C25.5 14.6144 25.0523 14.1667 24.5 14.1667C23.9477 14.1667 23.5 14.6144 23.5 15.1667V16.45C23.5 17.8905 23.4992 18.9097 23.4331 19.7061C23.3679 20.4905 23.2446 20.9686 23.0497 21.3439C22.6702 22.0745 22.0745 22.6702 21.3439 23.0497C20.9686 23.2446 20.4905 23.3679 19.7061 23.4331C18.9097 23.4992 17.8905 23.5 16.45 23.5H11.55C10.1095 23.5 9.09025 23.4992 8.29391 23.4331C7.50955 23.3679 7.03142 23.2446 6.6561 23.0497C5.92553 22.6702 5.32985 22.0745 4.95035 21.3439C4.75538 20.9686 4.63208 20.4905 4.56694 19.7061C4.5008 18.9097 4.5 17.8905 4.5 16.45V11.55C4.5 10.1095 4.5008 9.09026 4.56694 8.29392C4.63208 7.50955 4.75538 7.03142 4.95035 6.65611C5.32985 5.92553 5.92553 5.32985 6.6561 4.95035C7.03142 4.75539 7.50955 4.63208 8.29391 4.56694C9.09025 4.50081 10.1095 4.5 11.55 4.5H14C14.5523 4.5 15 4.05229 15 3.5C15 2.94772 14.5523 2.5 14 2.5L11.5055 2.5Z" fill="white"/>
</svg>
